HIERARCHY
ROOT Root
{
  OFFSET 0.0 0.0 0.0
  CHANNELS 6 Xposition Yposition Zposition Zrotation Yrotation Xrotation
  JOINT Hips
  {
    OFFSET 0.0 100.0 0.0
    CHANNELS 6 Xposition Yposition Zposition Zrotation Yrotation Xrotation
    JOINT Spine1
    {
      OFFSET 5.003913 -0.037094 -0.013727
      CHANNELS 3 Zrotation Yrotation Xrotation
      JOINT Spine2
      {
        OFFSET 7.125363 -1e-06 0.0
        CHANNELS 3 Zrotation Yrotation Xrotation
        JOINT Chest
        {
          OFFSET 7.594027 1e-06 0.0
          CHANNELS 3 Zrotation Yrotation Xrotation
          JOINT Neck1
          {
            OFFSET 26.313086 -0.460272 -0.181672
            CHANNELS 3 Zrotation Yrotation Xrotation
            JOINT Neck2
            {
              OFFSET 8.045911 0.0 0.0
              CHANNELS 3 Zrotation Yrotation Xrotation
              JOINT Head
              {
                OFFSET 6.432774 0.0 0.0
                CHANNELS 3 Zrotation Yrotation Xrotation
                JOINT HeadEnd
                {
                  OFFSET 16.169773 0.06451 0.00362
                  CHANNELS 3 Zrotation Yrotation Xrotation
                }
                JOINT Jaw
                {
                  OFFSET 0.108741 3.12938 0.002639
                  CHANNELS 3 Zrotation Yrotation Xrotation
                }
                JOINT LeftEye
                {
                  OFFSET 4.45173 8.166359 3.206392
                  CHANNELS 3 Zrotation Yrotation Xrotation
                }
                JOINT RightEye
                {
                  OFFSET 4.436895 8.135758 -3.222429
                  CHANNELS 3 Zrotation Yrotation Xrotation
                }
              }
            }
          }
          JOINT LeftShoulder
          {
            OFFSET 23.218927 5.195579 1.621656
            CHANNELS 3 Zrotation Yrotation Xrotation
            JOINT LeftArm
            {
              OFFSET 15.902118 2e-06 -2e-06
              CHANNELS 3 Zrotation Yrotation Xrotation
              JOINT LeftForeArm
              {
                OFFSET 28.739307 0.0 -1e-06
                CHANNELS 3 Zrotation Yrotation Xrotation
                JOINT LeftHand
                {
                  OFFSET 27.093981 -4e-06 0.0
                  CHANNELS 3 Zrotation Yrotation Xrotation
                  JOINT LeftHandThumb1
                  {
                    OFFSET 2.276781 3.380274 0.83384
                    CHANNELS 3 Zrotation Yrotation Xrotation
                    JOINT LeftHandThumb2
                    {
                      OFFSET 4.705309 -1e-06 -1e-06
                      CHANNELS 3 Zrotation Yrotation Xrotation
                      JOINT LeftHandThumb3
                      {
                        OFFSET 2.798515 0.0 3e-06
                        CHANNELS 3 Zrotation Yrotation Xrotation
                        JOINT LeftHandThumbEnd
                        {
                          OFFSET 3.180793 4e-06 -4e-06
                          CHANNELS 3 Zrotation Yrotation Xrotation
                        }
                      }
                    }
                  }
                  JOINT LeftHandIndex1
                  {
                    OFFSET 3.247786 2.352677 0.137192
                    CHANNELS 3 Zrotation Yrotation Xrotation
                    JOINT LeftHandIndex2
                    {
                      OFFSET 6.367095 1e-06 0.0
                      CHANNELS 3 Zrotation Yrotation Xrotation
                      JOINT LeftHandIndex3
                      {
                        OFFSET 3.662364 0.0 0.0
                        CHANNELS 3 Zrotation Yrotation Xrotation
                        JOINT LeftHandIndex4
                        {
                          OFFSET 2.329242 4e-06 -4e-06
                          CHANNELS 3 Zrotation Yrotation Xrotation
                          JOINT LeftHandIndexEnd
                          {
                            OFFSET 2.767823 1e-06 0.0
                            CHANNELS 3 Zrotation Yrotation Xrotation
                          }
                        }
                      }
                    }
                  }
                  JOINT LeftHandMiddle1
                  {
                    OFFSET 3.163612 0.945023 -0.406112
                    CHANNELS 3 Zrotation Yrotation Xrotation
                    JOINT LeftHandMiddle2
                    {
                      OFFSET 6.276789 3e-06 0.0
                      CHANNELS 3 Zrotation Yrotation Xrotation
                      JOINT LeftHandMiddle3
                      {
                        OFFSET 4.35652 -1e-06 4e-06
                        CHANNELS 3 Zrotation Yrotation Xrotation
                        JOINT LeftHandMiddle4
                        {
                          OFFSET 2.996877 0.0 8e-06
                          CHANNELS 3 Zrotation Yrotation Xrotation
                          JOINT LeftHandMiddleEnd
                          {
                            OFFSET 2.323256 3e-06 -4e-06
                            CHANNELS 3 Zrotation Yrotation Xrotation
                          }
                        }
                      }
                    }
                  }
                  JOINT LeftHandRing1
                  {
                    OFFSET 2.882606 -0.309162 0.107445
                    CHANNELS 3 Zrotation Yrotation Xrotation
                    JOINT LeftHandRing2
                    {
                      OFFSET 6.033198 0.0 4e-06
                      CHANNELS 3 Zrotation Yrotation Xrotation
                      JOINT LeftHandRing3
                      {
                        OFFSET 4.350578 3e-06 0.0
                        CHANNELS 3 Zrotation Yrotation Xrotation
                        JOINT LeftHandRing4
                        {
                          OFFSET 2.651321 2e-06 -7e-06
                          CHANNELS 3 Zrotation Yrotation Xrotation
                          JOINT LeftHandRingEnd
                          {
                            OFFSET 1.937663 1e-06 -4e-06
                            CHANNELS 3 Zrotation Yrotation Xrotation
                          }
                        }
                      }
                    }
                  }
                  JOINT LeftHandPinky1
                  {
                    OFFSET 2.865315 -1.525436 0.575687
                    CHANNELS 3 Zrotation Yrotation Xrotation
                    JOINT LeftHandPinky2
                    {
                      OFFSET 5.54936 1e-06 -8e-06
                      CHANNELS 3 Zrotation Yrotation Xrotation
                      JOINT LeftHandPinky3
                      {
                        OFFSET 3.070974 0.0 -4e-06
                        CHANNELS 3 Zrotation Yrotation Xrotation
                        JOINT LeftHandPinky4
                        {
                          OFFSET 1.549672 1e-06 0.0
                          CHANNELS 3 Zrotation Yrotation Xrotation
                          JOINT LeftHandPinkyEnd
                          {
                            OFFSET 1.952123 0.0 0.0
                            CHANNELS 3 Zrotation Yrotation Xrotation
                          }
                        }
                      }
                    }
                  }
                }
              }
            }
          }
          JOINT RightShoulder
          {
            OFFSET 23.161716 5.296122 -1.380114
            CHANNELS 3 Zrotation Yrotation Xrotation
            JOINT RightArm
            {
              OFFSET -16.027195 -2e-06 1.1e-05
              CHANNELS 3 Zrotation Yrotation Xrotation
              JOINT RightForeArm
              {
                OFFSET -28.736639 4e-06 2e-06
                CHANNELS 3 Zrotation Yrotation Xrotation
                JOINT RightHand
                {
                  OFFSET -27.133619 6e-06 0.0
                  CHANNELS 3 Zrotation Yrotation Xrotation
                  JOINT RightHandThumb1
                  {
                    OFFSET -2.274328 -3.351035 -0.83067
                    CHANNELS 3 Zrotation Yrotation Xrotation
                    JOINT RightHandThumb2
                    {
                      OFFSET -4.703594 -3e-06 2e-06
                      CHANNELS 3 Zrotation Yrotation Xrotation
                      JOINT RightHandThumb3
                      {
                        OFFSET -2.794935 -4e-06 -3e-06
                        CHANNELS 3 Zrotation Yrotation Xrotation
                        JOINT RightHandThumbEnd
                        {
                          OFFSET -3.183852 4e-06 1e-06
                          CHANNELS 3 Zrotation Yrotation Xrotation
                        }
                      }
                    }
                  }
                  JOINT RightHandIndex1
                  {
                    OFFSET -3.253496 -2.33755 -0.127667
                    CHANNELS 3 Zrotation Yrotation Xrotation
                    JOINT RightHandIndex2
                    {
                      OFFSET -6.344434 0.0 0.0
                      CHANNELS 3 Zrotation Yrotation Xrotation
                      JOINT RightHandIndex3
                      {
                        OFFSET -3.654871 0.0 -8e-06
                        CHANNELS 3 Zrotation Yrotation Xrotation
                        JOINT RightHandIndex4
                        {
                          OFFSET -2.327586 -1e-06 0.0
                          CHANNELS 3 Zrotation Yrotation Xrotation
                          JOINT RightHandIndexEnd
                          {
                            OFFSET -2.770001 3e-06 8e-06
                            CHANNELS 3 Zrotation Yrotation Xrotation
                          }
                        }
                      }
                    }
                  }
                  JOINT RightHandMiddle1
                  {
                    OFFSET -3.168223 -0.944764 0.411762
                    CHANNELS 3 Zrotation Yrotation Xrotation
                    JOINT RightHandMiddle2
                    {
                      OFFSET -6.266691 -1e-06 -4e-06
                      CHANNELS 3 Zrotation Yrotation Xrotation
                      JOINT RightHandMiddle3
                      {
                        OFFSET -4.348901 0.0 0.0
                        CHANNELS 3 Zrotation Yrotation Xrotation
                        JOINT RightHandMiddle4
                        {
                          OFFSET -3.00024 2e-06 -4e-06
                          CHANNELS 3 Zrotation Yrotation Xrotation
                          JOINT RightHandMiddleEnd
                          {
                            OFFSET -2.321477 -4e-06 -4e-06
                            CHANNELS 3 Zrotation Yrotation Xrotation
                          }
                        }
                      }
                    }
                  }
                  JOINT RightHandRing1
                  {
                    OFFSET -2.885654 0.293261 -0.119232
                    CHANNELS 3 Zrotation Yrotation Xrotation
                    JOINT RightHandRing2
                    {
                      OFFSET -6.032835 -1e-06 -4e-06
                      CHANNELS 3 Zrotation Yrotation Xrotation
                      JOINT RightHandRing3
                      {
                        OFFSET -4.33881 0.0 -4e-06
                        CHANNELS 3 Zrotation Yrotation Xrotation
                        JOINT RightHandRing4
                        {
                          OFFSET -2.654903 -4e-06 -4e-06
                          CHANNELS 3 Zrotation Yrotation Xrotation
                          JOINT RightHandRingEnd
                          {
                            OFFSET -1.935122 0.0 4e-06
                            CHANNELS 3 Zrotation Yrotation Xrotation
                          }
                        }
                      }
                    }
                  }
                  JOINT RightHandPinky1
                  {
                    OFFSET -2.866241 1.503904 -0.60527
                    CHANNELS 3 Zrotation Yrotation Xrotation
                    JOINT RightHandPinky2
                    {
                      OFFSET -5.553177 -2e-06 0.0
                      CHANNELS 3 Zrotation Yrotation Xrotation
                      JOINT RightHandPinky3
                      {
                        OFFSET -3.062664 -1e-06 -4e-06
                        CHANNELS 3 Zrotation Yrotation Xrotation
                        JOINT RightHandPinky4
                        {
                          OFFSET -1.546529 2e-06 4e-06
                          CHANNELS 3 Zrotation Yrotation Xrotation
                          JOINT RightHandPinkyEnd
                          {
                            OFFSET -1.952341 0.0 -4e-06
                            CHANNELS 3 Zrotation Yrotation Xrotation
                          }
                        }
                      }
                    }
                  }
                }
              }
            }
          }
        }
      }
    }
    JOINT LeftLeg
    {
      OFFSET -8.443107 2.567604 10.043214
      CHANNELS 3 Zrotation Yrotation Xrotation
      JOINT LeftShin
      {
        OFFSET 43.229198 1e-06 -1e-06
        CHANNELS 3 Zrotation Yrotation Xrotation
        JOINT LeftFoot
        {
          OFFSET 42.298611 1e-06 1e-06
          CHANNELS 3 Zrotation Yrotation Xrotation
          JOINT LeftToeBase
          {
            OFFSET 14.165858 1e-06 0.0
            CHANNELS 3 Zrotation Yrotation Xrotation
            JOINT LeftToeEnd
            {
              OFFSET 6.7141 -0.234461 0.0
              CHANNELS 3 Zrotation Yrotation Xrotation
            }
          }
        }
      }
    }
    JOINT RightLeg
    {
      OFFSET -8.303923 2.592729 -10.047278
      CHANNELS 3 Zrotation Yrotation Xrotation
      JOINT RightShin
      {
        OFFSET -43.369682 0.0 1e-06
        CHANNELS 3 Zrotation Yrotation Xrotation
        JOINT RightFoot
        {
          OFFSET -42.260784 4e-06 2e-06
          CHANNELS 3 Zrotation Yrotation Xrotation
          JOINT RightToeBase
          {
            OFFSET -14.222245 -2e-06 -1e-06
            CHANNELS 3 Zrotation Yrotation Xrotation
            JOINT RightToeEnd
            {
              OFFSET -6.660062 0.232574 -2e-06
              CHANNELS 3 Zrotation Yrotation Xrotation
            }
          }
        }
      }
    }
  }
}
MOTION
Frames: 5
Frame Time: 0.03333333333333333
0.0 0.0 0.0 0.0 -0.0 0.0 -2.43934 98.634995 2.071203 90.105606 3.283949 89.78479 6.594954 0.518648 -0.251706 -9.222651 -0.342806 -0.708237 20.252295 0.312832 -2.916986 28.893698 -2.378825 2.804797 -2.503977 -0.615033 -2.536301 -36.2061 -1.251564 -2.395829 6e-06 0.0 -0.0 0.010942 0.015293 -0.112209 0.057616 0.058115 -0.089117 0.034668 -0.031545 -0.129954 -90.046928 -74.258141 111.098694 35.784763 -46.564568 8.662536 40.123199 -0.600862 0.168797 6.916925 5.304829 19.682409 17.636631 -26.322729 52.411186 -19.466665 -14.395598 29.410385 -1e-06 -8.774822 -2e-06 15.980771 -17.901115 5.99383 -0.609776 -1.795653 -3.889329 -4.807089 -11.046811 -2.93785 5e-06 -20.976017 1e-06 -5.019969 -25.033556 -4.03188 7e-06 1e-06 -1e-06 -10.634535 -5.686969 -3.565588 10.573276 -17.922947 -3.113903 4e-06 -13.821206 0.0 -0.501776 -31.181498 -4.027016 -11.362468 -59.638344 7.298875 -13.982714 -7.150196 -2.875041 13.772732 -8.401493 -3.218241 0.347737 -34.211555 0.771652 -0.963027 -17.733366 2.621019 0.0 -0.0 -0.0 -17.346416 -20.095217 -4.201783 21.757559 -1.638376 3.86643 1e-06 -6.338824 1e-06 -1.697589 -22.591745 -6.194005 0.0 -3e-06 -2e-06 82.894768 -76.464523 119.543053 31.793274 -49.304806 10.4705 43.228436 0.213876 0.05824 0.458515 12.562756 3.252537 22.182117 -20.375891 49.933308 -16.701815 -16.743528 28.476526 -5e-06 -12.6906 -1e-06 16.330715 -17.639286 2.367112 -0.10592 -1.513855 -4.275879 -5.03904 -5.61287 -2.953557 5e-06 -11.020523 -2e-06 -6.111293 -15.89533 -3.840472 0.0 0.0 -1e-06 -10.283367 -5.680285 -4.341839 11.028294 -11.302404 -2.372635 -1.384267 -14.238578 -6.320118 -0.625434 -26.924185 -3.827599 -4.078461 -49.329292 -4.074937 -13.708523 -7.363472 -3.720939 18.14115 -14.052739 -3.242675 9e-06 -18.787266 -2e-06 -0.429709 -8.456044 2.555505 -1e-06 -0.0 2e-06 -15.923531 -20.094481 -5.473588 30.41921 -7.190829 1.735926 4e-06 -8.162924 -1e-06 -1.861899 -22.861469 -6.167943 -0.0 -3e-06 -1e-06 172.963013 -6.702548 -5.88586 23.600031 0.011395 0.134717 -82.211243 7.091484 -4.481455 -6.903121 1.476019 2.067872 -0.999999 -0.0 0.0 -5.929794 -7.593525 -11.258909 24.004997 0.093683 0.122979 -83.008934 8.217519 -6.496009 -6.754175 0.72498 1.65642 -1.000002 -0.0 0.0 
0.0 0.0 0.0 0.0 -0.0 0.0 -2.295913 98.612152 2.172485 89.792061 3.298289 89.505417 6.625932 0.614428 -0.280796 -9.2503 -0.313699 -0.662868 20.240381 0.349177 -2.941592 28.950348 -2.381101 2.767555 -2.499326 -0.654012 -2.487535 -36.04911 -1.311575 -2.425825 5e-06 -0.0 0.0 0.001197 0.009357 -0.095109 0.026967 0.057212 -0.073572 2.3e-05 -0.04249 -0.112071 -89.691895 -74.235611 110.864799 35.792789 -46.732277 8.427559 40.133869 -0.605945 0.143372 7.061484 5.223167 19.858824 17.636629 -26.322731 52.41119 -19.466663 -14.395598 29.410385 -1e-06 -8.774822 -1e-06 15.953063 -17.877411 5.974377 -0.609777 -1.795652 -3.88933 -4.80709 -11.046811 -2.93785 4e-06 -20.976015 3e-06 -5.019969 -25.033554 -4.03188 6e-06 1e-06 -1e-06 -10.634535 -5.686967 -3.565589 10.573276 -17.922951 -3.1139 2e-06 -13.821209 1e-06 -0.501777 -31.181501 -4.027014 -11.212934 -59.696846 7.215982 -13.982714 -7.150195 -2.875041 13.772731 -8.401492 -3.218243 0.347734 -34.211552 0.771654 -0.963028 -17.733366 2.621021 -0.0 -0.0 0.0 -17.346416 -20.095213 -4.201784 21.757563 -1.638376 3.866428 2e-06 -6.338822 2e-06 -1.697588 -22.591738 -6.194008 -0.0 -3e-06 -2e-06 83.156982 -76.376717 119.354637 31.839624 -49.516167 10.411098 43.151325 0.262807 0.083772 0.591856 12.556675 3.189935 22.182119 -20.375898 49.933323 -16.701817 -16.743528 28.476532 -3e-06 -12.690601 -2e-06 16.334579 -17.627668 2.400507 -0.10592 -1.513858 -4.27588 -5.03904 -5.61287 -2.953557 5e-06 -11.020525 -3e-06 -6.111297 -15.895334 -3.840469 -0.0 0.0 -1e-06 -10.283371 -5.680288 -4.341839 11.028296 -11.302407 -2.372634 -1.384268 -14.238584 -6.320121 -0.625436 -26.924198 -3.827603 -4.133851 -49.494019 -3.951029 -13.708524 -7.363476 -3.720939 18.141148 -14.052741 -3.242674 7e-06 -18.787271 -2e-06 -0.429711 -8.456045 2.555505 0.0 -0.0 -0.0 -15.923536 -20.094484 -5.473587 30.419218 -7.190829 1.735926 5e-06 -8.162926 -2e-06 -1.861902 -22.861473 -6.167945 0.0 -4e-06 -1e-06 172.861923 -7.021634 -6.08911 24.107141 0.01768 0.179621 -82.575424 7.040365 -4.462553 -6.970581 1.484877 2.066537 -0.999999 0.0 0.0 -5.783594 -7.312371 -11.145227 23.758631 0.09646 0.128892 -82.905045 8.402564 -6.535892 -6.793151 0.719424 1.659844 -1.000002 -0.0 -0.0 
0.0 0.0 0.0 0.0 -0.0 0.0 -2.095438 98.568085 2.312145 89.468285 3.300099 89.260735 6.645376 0.690311 -0.299565 -9.275068 -0.294668 -0.65517 20.289768 0.417159 -2.935449 28.967863 -2.393529 2.734536 -2.524445 -0.64158 -2.485044 -35.866562 -1.381057 -2.427227 6e-06 -0.0 0.0 -0.002828 0.009041 -0.088115 -0.003714 0.057177 -0.064823 -0.02961 -0.043366 -0.107772 -89.390327 -74.218445 110.649879 35.73534 -46.904339 8.447643 40.409187 -0.608411 0.135729 7.208741 5.171471 19.744432 17.636633 -26.322733 52.411201 -19.466665 -14.395602 29.410393 1e-06 -8.774824 -2e-06 15.971962 -17.907249 5.961441 -0.609777 -1.795654 -3.889327 -4.807091 -11.046813 -2.93785 3e-06 -20.976021 2e-06 -5.019973 -25.033562 -4.031882 6e-06 2e-06 -2e-06 -10.634538 -5.686973 -3.565588 10.573277 -17.922955 -3.113901 1e-06 -13.821213 2e-06 -0.501781 -31.181511 -4.027016 -11.185666 -59.69199 7.172802 -13.982719 -7.1502 -2.87504 13.772735 -8.401491 -3.218242 0.347732 -34.211555 0.771654 -0.963028 -17.73337 2.621019 0.0 0.0 0.0 -17.346426 -20.095221 -4.201782 21.757563 -1.638374 3.866431 0.0 -6.338824 0.0 -1.697591 -22.591751 -6.194009 1e-06 -2e-06 -3e-06 83.107628 -76.292862 119.452904 31.72707 -49.632034 10.564962 43.167305 0.267599 0.080689 0.742472 12.557639 3.133673 22.182114 -20.375891 49.933315 -16.701811 -16.743528 28.476528 -2e-06 -12.6906 -2e-06 16.315641 -17.580509 2.433402 -0.105919 -1.513858 -4.275879 -5.039042 -5.61287 -2.953558 4e-06 -11.020525 -2e-06 -6.111299 -15.895334 -3.84047 0.0 -0.0 -1e-06 -10.283369 -5.680288 -4.341835 11.028294 -11.302402 -2.372635 -1.38427 -14.238579 -6.320122 -0.625439 -26.924183 -3.827602 -4.155159 -49.532063 -3.865657 -13.708524 -7.363477 -3.72094 18.14115 -14.052737 -3.242675 4e-06 -18.78727 -2e-06 -0.429712 -8.456046 2.555504 0.0 0.0 1e-06 -15.923538 -20.094482 -5.473581 30.41921 -7.190824 1.735926 4e-06 -8.162924 -1e-06 -1.861904 -22.861469 -6.167939 0.0 -2e-06 -0.0 172.687408 -7.317739 -6.27737 24.777395 0.010311 0.211399 -83.039131 6.934888 -4.329218 -6.987533 1.483999 2.06786 -0.999999 0.0 -0.0 -5.612865 -7.060126 -11.03683 23.505735 0.101052 0.129593 -82.879837 8.564243 -6.698785 -6.76291 0.725701 1.664393 -1.000002 0.0 -0.0 
0.0 0.0 0.0 0.0 -0.0 0.0 -1.865007 98.534668 2.408597 89.098389 3.288597 89.063034 6.668827 0.776458 -0.30174 -9.297567 -0.271764 -0.663173 20.343597 0.517206 -2.904564 28.968584 -2.401532 2.698437 -2.548829 -0.618986 -2.445596 -35.762936 -1.425401 -2.417925 5e-06 0.0 0.0 -0.003874 0.009293 -0.085898 -0.027839 0.056131 -0.060922 -0.051025 -0.042104 -0.108075 -89.046623 -74.181122 110.376839 35.76778 -47.146 8.590825 40.795387 -0.610244 0.136362 7.39926 5.189138 19.672407 17.636625 -26.322725 52.411182 -19.466661 -14.395594 29.410381 -1e-06 -8.774821 -1e-06 15.989973 -17.951973 5.953592 -0.609776 -1.795653 -3.889325 -4.807088 -11.046811 -2.937853 3e-06 -20.976019 2e-06 -5.019969 -25.03356 -4.031883 6e-06 -2e-06 1e-06 -10.634532 -5.68697 -3.565585 10.573272 -17.922951 -3.113903 2e-06 -13.821211 1e-06 -0.501778 -31.181505 -4.027015 -11.169795 -59.665226 7.139361 -13.982711 -7.150197 -2.875041 13.772727 -8.40149 -3.218241 0.347733 -34.211552 0.77165 -0.963029 -17.73337 2.621018 2e-06 0.0 0.0 -17.346413 -20.095217 -4.20178 21.757555 -1.638373 3.866427 1e-06 -6.338824 0.0 -1.697589 -22.591749 -6.194008 -0.0 -3e-06 -3e-06 82.976822 -76.218536 119.601311 31.519135 -49.688553 11.019862 43.226215 0.284448 0.087429 0.841204 12.440315 3.031381 22.182106 -20.375883 49.9333 -16.701809 -16.74353 28.476519 -2e-06 -12.690599 1e-06 16.301733 -17.532219 2.462853 -0.10592 -1.513856 -4.27588 -5.03904 -5.612869 -2.953555 3e-06 -11.020521 -3e-06 -6.111298 -15.89533 -3.840469 -0.0 0.0 2e-06 -10.283369 -5.680288 -4.341837 11.028292 -11.302402 -2.372634 -1.384269 -14.238577 -6.320122 -0.625439 -26.924183 -3.827601 -4.1789 -49.513138 -3.790387 -13.708523 -7.363476 -3.720937 18.141146 -14.052734 -3.242678 4e-06 -18.787266 -4e-06 -0.429712 -8.456043 2.555502 -1e-06 -1e-06 3e-06 -15.923532 -20.094481 -5.473584 30.41921 -7.190822 1.735923 4e-06 -8.162922 -2e-06 -1.861902 -22.861467 -6.167943 -0.0 -4e-06 -0.0 172.463257 -7.639176 -6.428945 25.43853 -0.001445 0.232 -83.458191 6.79745 -4.172746 -6.979316 1.47492 2.06559 -0.999999 -0.0 -0.0 -5.447058 -6.753067 -10.863822 23.1898 0.102348 0.119173 -82.753868 8.62376 -6.886003 -6.7113 0.727813 1.666055 -1.000002 -0.0 -0.0 
0.0 0.0 0.0 0.0 -0.0 0.0 -1.595749 98.52887 2.486028 88.704819 3.231335 88.916367 6.66725 0.884859 -0.28972 -9.318079 -0.244153 -0.663022 20.395851 0.625992 -2.878247 28.914131 -2.402928 2.675923 -2.559119 -0.594785 -2.381934 -35.730778 -1.419381 -2.413402 6e-06 -0.0 -0.0 -0.002749 0.008645 -0.079816 -0.037909 0.052172 -0.053547 -0.059459 -0.039462 -0.104051 -88.759262 -74.09285 110.155495 35.967598 -47.395084 8.79882 41.161331 -0.632433 0.128264 7.609641 5.227077 19.735001 17.636625 -26.322731 52.411201 -19.46666 -14.395594 29.410393 -0.0 -8.77482 -1e-06 15.968566 -17.979729 5.973635 -0.609776 -1.795653 -3.889325 -4.80709 -11.046811 -2.937851 0.0 -20.976017 2e-06 -5.01997 -25.03356 -4.031885 6e-06 0.0 3e-06 -10.634533 -5.686972 -3.565588 10.573269 -17.922951 -3.113901 1e-06 -13.821209 -1e-06 -0.50178 -31.181505 -4.027017 -11.16199 -59.623726 7.141739 -13.982712 -7.150199 -2.875042 13.772726 -8.40149 -3.218242 0.34773 -34.211555 0.771653 -0.963031 -17.73337 2.621019 1e-06 0.0 0.0 -17.346424 -20.095222 -4.20178 21.757557 -1.638372 3.866429 0.0 -6.338825 0.0 -1.697592 -22.591751 -6.194009 2e-06 -3e-06 -2e-06 82.740761 -76.16172 119.813141 31.249451 -49.65707 11.705811 43.260853 0.304582 0.127794 0.873058 12.265654 2.93963 22.182112 -20.375889 49.933308 -16.701811 -16.743528 28.476522 -1e-06 -12.690601 -0.0 16.298523 -17.504681 2.480114 -0.105919 -1.513855 -4.275882 -5.03904 -5.612871 -2.953555 3e-06 -11.020525 -2e-06 -6.1113 -15.895334 -3.840468 -0.0 1e-06 -1e-06 -10.283371 -5.680288 -4.341842 11.028294 -11.302405 -2.372633 -1.38427 -14.238581 -6.32012 -0.625442 -26.924187 -3.827601 -4.209506 -49.497917 -3.731172 -13.708525 -7.363475 -3.720939 18.141146 -14.052739 -3.242673 4e-06 -18.78727 -3e-06 -0.42971 -8.456045 2.555503 0.0 -2e-06 3e-06 -15.923534 -20.094482 -5.473583 30.41921 -7.190823 1.735927 4e-06 -8.162922 -1e-06 -1.861904 -22.861467 -6.16794 -0.0 -4e-06 -2e-06 172.220901 -7.93742 -6.495651 25.982302 -0.013653 0.245226 -83.797195 6.64328 -4.015404 -6.959785 1.468053 2.061913 -0.999999 -0.0 0.0 -5.224166 -6.403494 -10.63063 22.642309 0.098705 0.111073 -82.503014 8.568997 -7.063026 -6.66603 0.723828 1.665942 -1.000002 0.0 0.0 
